<?xml version="1.0" encoding="UTF-8"?>
<svg version="1.1" viewBox="0 0 904 892" width="1280" height="1280" xmlns="http://www.w3.org/2000/svg">
<path transform="translate(0)" d="m0 0h904v892h-904z" fill="#FCFCFC"/>
<path transform="translate(455,243)" d="m0 0h147l25 1v269l-1 112-3 8-5 8-8 6-12 6-15 4-18 2-17 1-69 1-14 2-10 4-5 4-4 8h-3l-6-10-6-4-10-3-24-2-57-1-27-2-16-3-16-6-9-7-7-8-4-11-1-6v-372z" fill="#292E8D"/>
<path transform="translate(112,480)" d="m0 0h3l7 8 7 7 6 5 4 4v2h2v2l4 2v2l4 2 16 16h2l6-20 8-24 2-3 4 1 2 18 4 17 7 19 10 20 12 19 8 10-3 3-6 4 1 6 14 17 1 3h2l7 8 13 13 2 1v2l4 2 8 7 19 13 18 11 26 12 16 6 28 8 21 4 31 3h29l33-4 25-6 20-6 20-8 19-9 23-14 18-13 14-12 17-17 9-11 7-8 3-7v-2l-6-2-4-4 1-3 5-5 12-17 10-17 8-18 6-21 2-18 1-5 4 2 7 22 6 20v5l8-7 45-45h2v8l-4 20-12 36-11 27-9 21-2 3 12 6-2 4-10 15-10 13-8 10-8 9-2 3h-2l-2 4-21 21-8 7-13 11-18 13-20 13-18 10-25 12-21 8-25 8-26 6-34 5-38 1-27-1-22-3-26-5-35-10-28-11-24-12-22-13-20-14-10-8-13-11-10-9-26-26-9-11-14-18-13-19-1-3 11-6-2-5-14-29-10-27-7-24-5-27z" fill="#FCD241"/>
<path transform="translate(333,450)" d="m0 0h44l64 1 1 1v210l-3 1-13-6-18-2-16-1-50-1-31-2-19-5-14-7-7-8-4-10-1-8v-158l1-4z" fill="#FCD241"/>
<path transform="translate(448,451)" d="m0 0h171l2 2 1 140v29l-3 9-10 11-10 5-19 5-11 1-45 1h-28l-29 3-10 3-9 3-1-2-1-126v-47l1-36z" fill="#2A2F8D"/>
<path transform="translate(449,250)" d="m0 0h170l1 1v194l-2 1h-169l-1-1v-194z" fill="#FCD241"/>
<path transform="translate(442,100)" d="m0 0 16 2h83v25h10v10l-1 1h-9l1 17h8l1 1v10l-9 1-1 18h10v8l-2 3h-8v24l-2 1-93 1-4 1-4-2h-91l-1-24-8-1-1-1v-10l10-1-1-17-8-1-1-1v-10l9-1v-16l-9-1v-10l9-1 1-24h82z" fill="#090511"/>
<path transform="translate(112,480)" d="m0 0h3l7 8 7 7 6 5 4 4v2h2v2l4 2v2l4 2 16 16h2l6-20 8-24 2-3 4 1 2 18 4 17 7 19 10 20 12 19 8 10-3 3-6 4 1 6 14 17 1 3h2l7 8 13 13 2 1v2l4 2 8 7 19 13 18 11 26 12 16 6 28 8 21 4 31 3h29l33-4 25-6 20-6 20-8 19-9 23-14 18-13 14-12 17-17 9-11 7-8 3-7v-2l-6-2-4-4 1-3 5-5 12-17 10-17 8-18 6-21 2-18 1-5 4 2 7 22 6 20v5l8-7 45-45h2v8l-4 20-12 36-11 27-9 21-2 3 12 6-2 4-10 15-10 13-8 10-8 9-2 3h-2l-2 4-21 21-8 7-13 11-18 13-20 13-18 10-25 12-21 8-25 8-26 6-34 5-38 1-27-1-22-3-26-5-35-10-28-11-24-12-22-13-20-14-10-8-13-11-10-9-26-26-9-11-14-18-13-19-1-3 11-6-2-5-14-29-10-27-7-24-5-27zm85 93-22 12-30 16 2 5 8 12 10 13 8 10 12 14 25 25 10 8 16 13 17 12 18 11 23 12 17 8 27 10 30 8 25 5 25 3h50l29-3 30-6 25-7 21-8 23-10 22-12 18-11 14-10 13-10 13-11 17-16 12-12 7-8 10-12 21-28 1-4-17-9-23-13-12-7-4 2-11 18-8 11-9 11-13 15-14 14-11 9-18 13-21 13-29 14-26 9-19 5-22 4-31 3h-22l-33-3-28-6-11-3-24-8-26-12-16-9-18-12-14-11-8-7h-2v-2h-2v-2l-8-7-4-5h-2l-2-4-8-9-8-10-11-16-9-14z" fill="#0B081B"/>
<path transform="translate(455,243)" d="m0 0h147l25 1v269l-1 112-3 8-5 8-8 6-12 6-15 4-18 2-17 1-69 1-14 2-10 4-5 4-4 8h-3l-6-10-6-4-10-3-24-2-57-1-27-2-16-3-16-6-9-7-7-8-4-11-1-6v-372zm-187 6-2 2-1 142v50l3 2 34 2 30 1 64-1 40-2 6-2 1-2 1-15 2-7 1-53-1-86-2-10-2-19-3-2zm181 1-1 1v194l1 1h169l2-1v-194l-1-1zm-116 200-66 1-1 4v158l2 12 6 10 7 6 14 6 16 4 31 2 50 1 27 2 10 2 10 5 3-1v-210l-1-1-82-1zm115 1-1 1-1 36v47l1 126 1 2 9-3 10-3 29-3h33l40-1 16-2 17-5 9-6 9-11 2-7v-32l-1-137-2-2z" fill="#08040E"/>
<path transform="translate(506,311)" d="m0 0h5l2 2 2 6 2 1v2l5 2 4 3 5-1 10-8 3-6 5-1 6 1h13l5 2 2 4v8l-5 13 1 3 12 5 6 5 2 4-1 5-3 12-3 2-14-1 1-3h2l2-7 3-2 10-1-3-7-9-6-6-3-4 1-6 9-1 1v5l10 12 6 17v9l-5 5h-16l-9 1-7-10-8-6-5 1-10 7-3 7-5 2-4-2-13 1-7-3-3-5 1-9 4-9 1-5-10-3-8-6-4-6 3-7 1-7 3-3h13l1-4-5-14 1-7 5-5h18z" fill="#060207"/>
<path transform="translate(448,114)" d="m0 0h74l1 1v93h-77l-1-1v-90z" fill="#FDFDFD"/>
<path transform="translate(365,114)" d="m0 0h75l1 1 1 92-2 2-75-1z" fill="#FCFCFC"/>
<path transform="translate(357,476)" d="m0 0h5v13l12 2 12 6 9 9 6 12 3 12h11l1 5-2 1-10 1-4 13-6 10-4 5-11 7-15 5-1 1-1 11-4 1-2-1-1-12-13-4-8-4-10-9-5-9-3-8-1-7h-11l-3-1-1-4 2-1 12-1 2-7 6-14 9-10 8-5 16-5 1-11z" fill="#060207"/>
<path transform="translate(118,491)" d="m0 0 6 4 20 20 8 7 14 14 3 1 3-11 10-29 2 3 7 26 5 13 8 16 7 12 8 11-1 2-10-6-6-5-6 1-32 17-7 4h-4l-10-21-7-15-10-28-6-22z" fill="#FCD241"/>
<path transform="translate(770,490)" d="m0 0 2 1-3 12-8 27-8 21-10 24-7 15-2 2-7-3-37-20-5 1-11 8h-2l2-5 11-16 8-15 7-19 4-16 2-7h2l4 10 6 20 2 9h3l2-4z" fill="#FCD241"/>
<path transform="translate(125,390)" d="m0 0 3 1 7 11 5 13 4 17v4h2l1-6 6-14 10-14 10-10h3l1 8v17l-3 15-6 15-9 13-7 8-6 5-4-1-6-5-9-11-8-16-3-16 2-15 4-13z" fill="#89BC3F"/>
<path transform="translate(760,391)" d="m0 0 4 1 5 12 2 8v22l-4 12-6 11-11 12-6 5-7-6-9-9-7-11-5-10-4-15-1-7v-13l1-10h3l9 8 10 13 7 15 2 7h2l1-11 5-17 6-12z" fill="#87B83F"/>
<path transform="translate(143,308)" d="m0 0 3 1 4 12 1 5v27h2l2-5 6-10 3-4h2v-2l14-11 7-3 1 4-2 14-6 16-7 11-9 10-16 12-4-1-8-11-5-10-2-7-1-11 2-12 5-14 7-10z" fill="#8BBE3F"/>
<path transform="translate(743,306)" d="m0 0 5 4 7 14 4 14v11l-4 14-5 10-8 11-4-2-9-6-10-9-9-12-6-12-3-10-1-7v-9l2-1 11 7 14 14 2 3v3h2l4 7h1v-22l2-11 4-9z" fill="#84B53F"/>
<path transform="translate(191,240)" d="m0 0h3l1 11-6 20-2 6 14-9 14-5 10-1-2 7-10 15-9 10-9 7-10 5-7 2h-10l-3-9-1-6v-15l4-13 6-10 12-12z" fill="#8CBF40"/>
<path transform="translate(347,325)" d="m0 0h4l3 11v3l-12 4-6 5-5 10-1 4v11l4 8 7 6 15 5 1 4 59 1v8h-112l-1-7 26-1-7-10-6-11-2-9 1-9 5-12 8-10 10-7z" fill="#FDFDFC"/>
<path transform="translate(694,240)" d="m0 0 5 2 9 7 7 8 7 14 2 14-1 14-3 8-1 1h-12l-10-4-11-8-6-5-10-13-5-9-2-7 9 1 12 4 10 6 7 4-6-18-1-4z" fill="#8CC040"/>
<path transform="translate(525,472)" d="m0 0h7l3 2v11l9 1 11 4 9 7-1 4-18-1-13-2h-21l-8 4-2 6 5 6 9 3 8 2 1-17 3-1 6 2 1 1v15l-1 21h-7l-1-1-1-13h-11l-15-4-6-4-3-4-1-8 3-7 7-7 10-5 7-2h10l-1-2v-10z" fill="#FCFCFC"/>
<path transform="translate(536,519)" d="m0 0 10 1 12 5 5 5 2 8-3 5-6 5-7 3-20 2-14 1-10 3-2 2v9l6 7 10 6 6 3 1-28 1-1h5l1 1 1 8v24l10 1 5 1v1h-16v25l-4 1-2-11-1-17-8-1-14-7-7-7-4-10 1-7 4-5 8-4 7-2 29-3 9-3 3-3-1-4-3-3-9-2-6-1v-7z" fill="#FCFCFB"/>
<path transform="translate(242,188)" d="m0 0h4l-3 12-7 13-2 3 13-4 8-1h10l2 1-2 4-5 6-11 9-10 6-9 3h-16l-2-1-1-5v-8l3-12 5-10 5-6 13-8z" fill="#8BBE41"/>
<path transform="translate(642,187)" d="m0 0 9 3 8 6 5 5 6 8 5 14v12l-4 4-3 1h-9l-10-3-12-7-12-11-5-6v-3l3-1 15 2 10 3 4 2-9-17-2-7z" fill="#8ABE40"/>
<path transform="translate(648,623)" d="m0 0 1 3-7 6-5 5-4 5-6 5-1 4-16 12-22 14-23 12-19 8-21 7-21 5-17 3-31 3h-22l-33-3-28-6-11-3-24-8-14-7-5-4-5-2-3-4 6 2 14 7 21 8 28 8 21 4 31 3h29l33-4 25-6 20-6 20-8 19-9 23-14 18-13 14-12z" fill="#0C091E"/>
<path transform="translate(490,376)" d="m0 0 8 1 12 2 10 1 3 1 6-1 4 1 12-2 17-3 4 1 4 8 2 6v7l-6 4h-7l-5-4-3-5h-6l-3 1-8-6-3-3v-2l-7 2-5 5-5 3h-10l-5 8-2 1h-8l-5-3-1-6 5-14z" fill="#FCD241"/>
<path transform="translate(523,339)" d="m0 0h10l5 2 14 15-1 5-7 8h-2l-2 4-6 4h-13l-5-3-8-10-5-5 2-4 11-12z" fill="#FDD241"/>
<path transform="translate(760,395)" d="m0 0 4 1 5 14v25l-4 11-5 9-9 10-3 3h-2l-1-14v-17l4-18 9-21z" fill="#8DC140"/>
<path transform="translate(143,308)" d="m0 0 3 1 2 5 1 14v30l-3 18-2 4-7-8-3-3-4-10-2-12 2-14 5-14 7-10z" fill="#8BBE40"/>
<path transform="translate(355,294)" d="m0 0 4 2 4 10 3 8 8 40 2 12v6l-3 3 2 4h-5l-2-3-1-3-4-4-8-32-5-25 1-4 4-2-2-9z" fill="#FCFCFA"/>
<path transform="translate(363,495)" d="m0 0 9 1 9 5 8 7 6 10 2 6v5l-1 1h-32l-2-1v-33z" fill="#FCD140"/>
<path transform="translate(352,495)" d="m0 0 4 1v33l-1 1h-31l-3-1 2-10 7-11 9-8 9-4z" fill="#FCD241"/>
<path transform="translate(743,310)" d="m0 0 4 1 8 19 2 6 1 11-2 9-8 16-5 5-2-1-3-20v-24l2-15z" fill="#8DC140"/>
<path transform="translate(326,535)" d="m0 0h19l10 1 1 1v32l-1 1-7-1-10-5-9-8-5-8-2-6v-6z" fill="#FCD141"/>
<path transform="translate(363,536)" d="m0 0h33v7l-6 12-8 8-12 6-7 1-1-1v-32z" fill="#FDD241"/>
<path transform="translate(685,755)" d="m0 0h9l7 6 2 5v8l-4 6-7 6-5 2h-8l-10-11-4-6 1-3 5-2 7-8z" fill="#0D10BC"/>
<path transform="translate(788,638)" d="m0 0h11l6 5 3 6-1 9-4 7-7 6-2 1h-10l-5-5-3-4-1-9 4-9 7-6z" fill="#0E11BB"/>
<path transform="translate(312,54)" d="m0 0h7l6 3 4 6 1 3v7l-3 5-6 5-5 2h-12l-5-3-4-8v-8l4-6 6-4z" fill="#0D11BB"/>
<path transform="translate(666,265)" d="m0 0 9 1 13 5 12 9 4 4v3l3 1 9 15v3l-11-1-11-5-13-11-8-9-5-5-2-6z" fill="#8BBF40"/>
<path transform="translate(730,718)" d="m0 0 7 1 5 5 3 6v7l-5 8-8 6-3 1h-7l-6-4-4-5-1-8 3-7 5-5 6-4z" fill="#0E11BA"/>
<path transform="translate(218,264)" d="m0 0 4 1-2 6-7 9-8 10-7 7-12 7-14 2 1-5 9-15 7-8 10-6 10-5z" fill="#8DC140"/>
<path transform="translate(831,298)" d="m0 0h4l5 15v11l-4 5-6 3h-9l-5-3-5-9-4-11 1-3 13-5z" fill="#0E11BA"/>
<path transform="translate(195,752)" d="m0 0 7 1 9 5 9 8-2 5-10 13-5 4-5-2-11-9-4-6 1-5 5-6 3-6z" fill="#0E11BA"/>
<path transform="translate(365,397)" d="m0 0h51v8h-112l-1-7h24l6 2h20v2l5-4z" fill="#FDFDFA"/>
<path transform="translate(416,727)" d="m0 0h15l6 4 3 8-1 9-3 6-5 4h-13l-4-2v-19z" fill="#060207"/>
<path transform="translate(237,779)" d="m0 0 5 1 2 4-7 11v2l3-1 6-7 3-3 6 1 2 4-3 12-1 5 3-3 6-12 6 1 1 4-12 20-4 2-7-5 1-8 3-12-10 8-5 5-5-1-6-4 2-4 9-16z" fill="#0E11BA"/>
<path transform="translate(98,220)" d="m0 0h7l3 3 2 4 8 2 5 2-2 5h-2v2l-4-1-2-1h-6l-4 8 3 3 5 3-4 7-5-2-18-11-1-3 8-14 5-5z" fill="#0E11BA"/>
<path transform="translate(77,586)" d="m0 0 5 1v6l-6 3v7l1 6 12-3 2 3-1 4-10 5-13 5-3-1-7-17v-9l5-4 7-1z" fill="#0F12B9"/>
<path transform="translate(126,675)" d="m0 0 4 1 2 6-6 5 1 4 3 5 4 1 6-4 4 2 2 3-8 7-13 9-4-1-8-10-5-10 2-5 3-3 6 1 1-5z" fill="#0F12B9"/>
<path transform="translate(489,315)" d="m0 0h9l7 9 10-1 10 7v2l4 2v1h-7l-7 2-23 3-4-2-4-11v-9z" fill="#FBD241"/>
<path transform="translate(558,315)" d="m0 0h9l5 2v9l-5 12-2 2-10-1-15-2-10-3 2-4 8-6h10l3-2 3-6z" fill="#FCD241"/>
<path transform="translate(296,164)" d="m0 0 3 1-4 10-8 10-12 9-12 5-6 1-1-3 3-7h2l1-4 9-10 10-7z" fill="#8DC140"/>
<path transform="translate(590,164)" d="m0 0 9 2 12 5 11 8 9 11 2 3v5l-9-1-10-4-9-6-8-7-6-9z" fill="#85B642"/>
<path transform="translate(571,699)" d="m0 0 5 1 8 15 4 9-1 4h-5l-6-15-3-4 1 5 3 12v5l-3 2-4-1-7-11-2-4-2 1 8 17-4 3-3-1-8-20-1-9 8-1 10 15 2 1-3-21z" fill="#060207"/>
<path transform="translate(32,391)" d="m0 0 26 2 2 2-1 7-11 7-7 4h-2l1 2 16 1 1 1v6l-1 1-17-1-11-2v-7l5-4 13-8h2v-2l-17-1-1-4z" fill="#0E11BA"/>
<path transform="translate(448,812)" d="m0 0h7v12l7-1 5-1 1 5-2 3-7 3 4 6 2 6-2 2-5-1-2-5-5-1-3 6-1 1h-6l-1-3 4-8 1-4-8-1-2-5 2-3 7 1 4 1-1-12z" fill="#0F12B8"/>
<path transform="translate(531,109)" d="m0 0h1l1 89v14l-4 1-4-4 1-9v-61l1-25 2-4z" fill="#2A2F8E"/>
<path transform="translate(622,74)" d="m0 0 6 1 3 4 2 9 1 9 1 1 7-12 5-2 2 1-1 7-10 19-6-1-3-3-3-21-3 3-5 10-1 1h-6l-1-3 9-17z" fill="#0F12B9"/>
<path transform="translate(492,724)" d="m0 0h4v14l-3 17h-7l-4-15-3-2-1 17-3 2-4-1-3-4-8-24 1-1h5l2 3 3 10 3 6 2 1-1-2v-17l2-2h5l2 3 3 12 2 2 1-3 1-15z" fill="#060207"/>
<path transform="translate(808,588)" d="m0 0 5 1 20 8 2 1-1 5-4 4-19 4 3 3 10 4 2 2-1 4-5 1-20-8-3-2 1-4 5-4 20-4v-2l-9-3-8-4z" fill="#1013B7"/>
<path transform="translate(809,248)" d="m0 0 3 1 2 7-9 17v3l13-7 5 1 2 3-3 3-20 10h-5l-2-3 1-5 7-14 1-5-13 7h-4v-2l-3-1 5-5z" fill="#0E12BA"/>
<path transform="translate(71,264)" d="m0 0h4l-1 7-5 11v4l4-2 5-11 2-3h4l1 3-6 13 1 5 4-1 8-16 4-1 1 3-10 22-5 1-17-7-5-4 1-5 8-17z" fill="#0E11BA"/>
<path transform="translate(62,536)" d="m0 0h4l1 6-3 2 1 13 8 5 1 5h-8l-19-3-5-3-1-7 12-11z" fill="#0E12BA"/>
<path transform="translate(782,211)" d="m0 0h5l4 5v5l-11 18-4 4-4-2-2-4 4-3v-3l-5-5-2-3-7-1-4-4v-2l8-2z" fill="#0F12B8"/>
<path transform="translate(713,133)" d="m0 0 4 1 11 9 7 7-1 3-6-1-8-8-5-3v5l10 9 2 4-5 2-9-8-3-2-4 1 1 4 13 12v3h-5l-10-9-5-4v-2l-4-2 2-4 13-14z" fill="#0D11BB"/>
<path transform="translate(824,539)" d="m0 0 25 6 2 1-1 7-3 1-10-2-1 13 9 3-1 6-3 1-19-5-6-3 1-6h7l7 2 1-13-6-2-4-1 1-7z" fill="#0E12BA"/>
<path transform="translate(575,54)" d="m0 0 24 8 2 3-1 3-6-1-13-5h-1v5l16 6-1 4-8-1-7-3-5-1 2 7 17 6-1 5-9-2-17-6-1-4 7-20z" fill="#0D10BB"/>
<path transform="translate(157,714)" d="m0 0 4 1 3 3-1 9 4 2 4 3h9l2 3v3l-15 5-10 4-5-1-4-3 1-8z" fill="#0F12B9"/>
<path transform="translate(834,441)" d="m0 0h28l1 1v22l-1 5h-5l-1-19-3-1-1 1-1 18-5-1v-17l-6-1-1 20h-5z" fill="#1216B3"/>
<path transform="translate(98,631)" d="m0 0 4 1 1 6-2 5 4 7v2l9 2 3 3-1 3-20 2h-10l-4-6 2-5 8-12z" fill="#0E11BA"/>
<path transform="translate(642,190)" d="m0 0 9 2 10 9 7 8 4 10 2 7v7l-4-1-7-8-5-4-10-14-2-4-3-3z" fill="#8CBF41"/>
<path transform="translate(129,180)" d="m0 0h6l2 1-2 4-10 5-3 4v3l6-2 9-7 4-2 6 1 2 3v8l-6 9-8 5h-7v-4l11-6 4-6v-3l-5 2-10 8-5 2-4-1-3-3-1-5 3-8 8-7z" fill="#0D10BC"/>
<path transform="translate(446,33)" d="m0 0h13l6 4 2 3-1 4-4-2-10-4-5 1-1 3 7 2 14 5 1 1v7l-4 4-5 2h-11l-8-4-2-3 1-4 4 1 8 4 9-1 1-4-14-2-6-3-2-2v-6l4-5z" fill="#0D11BB"/>
<path transform="translate(37,445)" d="m0 0h12l4 2 3 5 1 4v8l-3 7-3 3-4 1h-19l-1-6 2-2 22-1v-7l-2-5h-21l-1-1v-7z" fill="#0E12BA"/>
<path transform="translate(519,811)" d="m0 0h3v2h2l2 5 5 1 3-2 3 5-5 7 4 8-1 3-7-2-4-1-2 5-5 1-1-1-1-10-6-4v-5l7-3h2l-1-7z" fill="#F7CF42"/>
<path transform="translate(368,809)" d="m0 0h5l2 4v7l8 1 2 3-2 3-4 1v11l-3 3-4-2v-3l-7 1-1 1h-5l-1-5 3-2-2-7-3-3v-4l13-1z" fill="#FBD241"/>
<path transform="translate(499,37)" d="m0 0h11l6 3 5 6-1 5-7-4v-2l-5-1h-7l-4 3v9l4 5h7l9-4 3 1-1 4-5 4-10 2-9-3-6-7-1-2v-9l4-6 4-3z" fill="#0E11BB"/>
<path transform="translate(843,489)" d="m0 0 9 1 6 7 2 9-2 8-4 6-5 3-2-1 1-6 4-4 1-8-2-4-4-2h-7l-4 4-1 6 4 8v4h-5l-4-5-1-2v-12l4-8 5-3z" fill="#0E11BA"/>
<path transform="translate(239,191)" d="m0 0h4l-1 5-3 7-8 13-16 16h-2v-10l-1-2h3l1-6 6-10 10-9z" fill="#8CC040"/>
<path transform="translate(485,344)" d="m0 0 4 1 7 9 2 5-6 9-3 4-6-1-9-5-7-6 1-4 1-1 9-1z" fill="#FDD241"/>
<path transform="translate(242,188)" d="m0 0h4l-3 12-7 13-2 3 13-4h16v1l-19 3-11 4h-2l-2 4-12 11v3h9l10-3 9-5 10-7 4-4 5-3-2 4-14 12-14 7-4 1h-16l-2-1-1-5v-8l2-5 1 3-1 8 8-7 10-10 7-12 5-12-7 3-6 4-7 6-6 10-2 6h-2l1-6 5-10 5-6 13-8z" fill="#0A0718"/>
<path transform="translate(694,240)" d="m0 0 5 2 9 7 7 8 7 14 2 14-1 14-3 8-1 1h-12l-10-4-11-8-6-5-8-10 1-2 4 4v2l3 1 5 6 10 8 10 4 11 2-5-10-5-8-2-1-3-5-10-8-12-6-13-3 1 4h-2l-2-7 9 1 12 4 10 6 6 4h4l1 4 3 3v2h2l9 15h2l-1-26-3-9-6-10-8-8-5-4-4-2z" fill="#0A0819"/>
<path transform="translate(669,104)" d="m0 0h10l9 6 4 7 1 4-2 3h-4l-3-9-5-4h-6l-5 4-1 2v7l4 4 6 1h6l2 2-1 4-2 1h-9l-8-5-5-6-1-2v-9l4-6z" fill="#0E11BB"/>
<path transform="translate(743,306)" d="m0 0 5 4 7 14 4 14v11l-4 14-5 10-8 11-4-2-9-6-10-9-9-12-6-12-1-6 2 1 8 16 7 10 8 8 9 7 2-1-5-25-2-6 4 3v-22l2-11 4-9zm0 4-3 7-2 17v22l3 20 2 1 5-5 8-16 2-9-1-11-5-13-5-12z" fill="#090512"/>
<path transform="translate(523,717)" d="m0 0h5v6l-15 2 2 6 8-1 6-1 1 4-6 3-8 1 2 7 16-2 2 4-9 3-8 2h-6l-3-10-3-13v-7z" fill="#060207"/>
<path transform="translate(257,664)" d="m0 0h5l1 4-13 18 2 5 6 1 13-16 4-2 3 3-7 11-9 9-5 2-8-3-5-5v-8l6-10z" fill="#060207"/>
<path transform="translate(352,713)" d="m0 0 19 5-1 5-7-1-9-2-1 7 13 2 1 4-1 1h-7l-7-1-2 2v4l9 3 5 1 1 4-3 2-17-5-3-2 3-12 5-15z" fill="#060207"/>
<path transform="translate(234,643)" d="m0 0 6 2 5 5 2 4v5l-4 3-3-4-2-8-6-1 2 8 4 8-1 7-4 4h-7l-8-6-2-3v-9l3-2 3 8 3 5 1 1h5l-2-8-4-8 2-7 3-3z" fill="#060207"/>
<path transform="translate(383,722)" d="m0 0 19 2 2 1-2 5-5-1h-10v5l13 2v5l-3 1-12-1-1 7 16 3v5l-10-1-12-3v-8l4-20z" fill="#060208"/>
<path transform="translate(449,260)" d="m0 0 5 2-1 7-3-1 3 11-1 7v11l-1 16h2v12l-2 11v45l1 9 1 5 2 6v9l-2 8-2 1-2 3z" fill="#FEDF46"/>
<path transform="translate(760,391)" d="m0 0 4 1 5 12 2 8v22l-4 12-6 11-11 12-6 5-7-6-9-9-7-11-5-10 2-1 5 10 8 11 8 9 5 2-1-21-1-14 1 2h2l1-11 5-17 6-12zm0 4-8 16-5 15-2 11v17l1 14 4-2 8-8 4-6 5-11 2-6v-25l-5-14z" fill="#090512"/>
<path transform="translate(627,665)" d="m0 0h6l5 4v2h-9l-4 2v6l9-2 3-1h8l3 4 1 9-5 5-7 3h-6l-3-2v-2l12-4 3-3v-4l-7 1-6 2h-8l-3-3-1-8 3-6z" fill="#060207"/>
<path transform="translate(369,40)" d="m0 0h5l1 2-2 3-16 4-1 2 1 2 9-1 8-1 1 4-2 2-15 2 3 9v3l-2 1h-6l-2-6-4-21 16-4z" fill="#0F13B8"/>
<path transform="translate(642,187)" d="m0 0 9 3 8 6 5 5 6 8 5 14v12l-4 4-3 1h-9l-10-3-12-7-9-8h3l12 9 13 5 9 1h5l-2-4-8-7-12-9-21-6v-1l11 1 10 3 4 2-7-13 1-2 7 11 8 10 8 7 1 3h3v-6l-3-8-3-9-11-12-7-5-6-1-2 1z" fill="#0C091D"/>
<path transform="translate(192,256)" d="m0 0 1 3-6 18 14-9 14-5 10-1-2 7-10 15-9 10-9 7-10 5-7 2h-10l-3-10h2v3l5-5 12-19 6-18zm26 8-16 6-10 6-8 7-8 13-4 7 1 3 13-2 13-8 9-9 11-15 3-5v-2z" fill="#0B0916"/>
<path transform="translate(603,682)" d="m0 0h4l9 15 3 10-4 6-4 3-9 1-6-5-10-18 1-3 5 1 10 17 1 1h6l3-1-2-9-8-14z" fill="#060207"/>
<path transform="translate(51,310)" d="m0 0 5 2v2l4 2 10 9 4 4 1 4-3 3-9 2-21 2 1-6 1-2 16-1h5v-2l-15-11-1-4z" fill="#0E11BB"/>
<path transform="translate(286,687)" d="m0 0h11l4 2 4 7v6l-4 2-4-10-7-1-7 8-1 2v8l3 1h13l-1 4-5 3h-6l-8-5-2-3v-11l5-9z" fill="#060208"/>
<path transform="translate(320,703)" d="m0 0h9l5 3 4 6v6h-4l-5-8-1-1h-6l-4 5-2 4v7l1 4h7l8-2v4l-5 4h-9l-6-4-2-4-1-7 3-10 4-5z" fill="#060207"/>
<path transform="translate(441,116)" d="m0 0 4 1 1 91h-5z" fill="#272B83"/>
<path transform="translate(229,92)" d="m0 0h3l1 23 4 5-1 3-7 2-3-7-14-6-7-2 5-5h6l9 4v-13z" fill="#0F12B9"/>
<path transform="translate(636,786)" d="m0 0 4 2 2 5 8 5 12 6 1 2-4 2-7-1-7-3h-3v11l-4 4h-4l1-8v-15l-3-4 1-4z" fill="#1013B7"/>
<path transform="translate(854,390)" d="m0 0 5 1 2 19v10h-5l-1-10-22 2-2-1v-7l13-2h10l-1-10z" fill="#0F12B9"/>
<path transform="translate(188,121)" d="m0 0h5l-2 5-6 5 6 7 8 10-2 4-5 1-12-14-2-2-8 6-3-1 1-4 5-5 9-7z" fill="#0E12BA"/>
<path transform="translate(310,60)" d="m0 0h7l5 4 1 8-3 5-7 3-7-1-3-4-1-8 5-6z" fill="#FDFDFB"/>
<path transform="translate(726,725)" d="m0 0h6l5 4 2 4-1 6-4 5-3 1h-7l-6-6v-7l4-5z" fill="#FDFDFA"/>
<path transform="translate(791,644)" d="m0 0 7 3 3 3v9l-4 5-4 2-6-1-5-5-1-7 4-6z" fill="#FDFDFB"/>
<path transform="translate(757,680)" d="m0 0 5 1 16 13 2 2v4l-7 1-13-11h-3l-8 10-2 2-4-1 1-4z" fill="#0E12B9"/>
<path transform="translate(684,761)" d="m0 0 8 1 4 6v7l-5 5-3 2-12 1-1-4 9-4v-4l-8 2-1-4 5-6z" fill="#FDFDFC"/>
<path transform="translate(265,666)" d="m0 0 2 4v3l1-1v-6l3 1 2 5 2 1-4 2-4 7-9 11-6-1-3-4 2-5 11-15z" fill="#FEDD46"/>
<path transform="translate(528,559)" d="m0 0h4l1 13v44l-4 1-2-11v-46z" fill="#FDFEE5"/>
<path transform="translate(254,793)" d="m0 0h1l-1 10-1 5 3-3 6-12 6 1 1 4-12 20-4 2-7-5 1-8 2-7v-6h2l1 6z" fill="#1114B6"/>
<path transform="translate(148,317)" d="m0 0 2 4 1 5 1 32-4 18v4l4-1 9-7 6-5 10-14 6-16 2-5 1 4-6 16-7 11-9 10-16 12-4-1-8-11 1-2 4 5 3 2 3-12 1-8z" fill="#07040D"/>
<path transform="translate(252,638)" d="m0 0 4 2 4 3 5 3 8 7 19 13 18 11 6 5 6 3 2 3-6-2-19-10-21-14-14-11-10-8v-2h-2z" fill="#0B081A"/>
<path transform="translate(827,307)" d="m0 0 6 1 2 6-1 7-4 3-8 1-5-4-2-9 9-4z" fill="#FDFDFB"/>
<path transform="translate(527,555)" d="m0 0h5l1 1 1 8v24l10 1 5 1v1h-16l-1-4v-28l-4 1-1 28-5 1-11-4-9-6-2-3h3l3 3 5-1 6 2 8 4 1-28z" fill="#FDFDFD"/>
<path transform="translate(657,640)" d="m0 0 3 1-2 5-3 4 9 11 7 8-1 3-5-1-11-12-2-5-10 5-2-1 1-4 14-13z" fill="#060208"/>
<path transform="translate(421,732)" d="m0 0h8l3 2 1 3v10l-3 5-5 2-5-1v-20z" fill="#FCD341"/>
<path transform="translate(260,448)" d="m0 0h1l1 65v79l1 16v18l-2-4-1-6z" fill="#2A2F8E"/>
<path transform="translate(824,539)" d="m0 0 25 6 2 1-1 7-3 1-5-2-6-1-2 5h-2v-6l-6-2-4-1 1-7z" fill="#0D10BC"/>
<path transform="translate(151,154)" d="m0 0 4 2 17 17-4 5-3 1-17-17-1-5z" fill="#1114B6"/>
<path transform="translate(359,130)" d="m0 0h1v81l-3-1v-79z" fill="#2A2F8E"/>
<path transform="translate(37,361)" d="m0 0 16 2 11 2v8l-4 1-24-5v-7z" fill="#0E11BA"/>
<path transform="translate(296,164)" d="m0 0 3 1-1 2-10 2-11 7-9 7-9 13 1 1 9-3 8-5 10-9 6-6 1-5 4-1-3 7-8 10-12 9-12 5-6 1-1-3 3-7h2l1-4 9-10 10-7z" fill="#0C0A20"/>
<path transform="translate(648,623)" d="m0 0 1 3-7 6-5 5-4 5-6 5-1 4-16 12-16 10-1-2-3-1 15-10 14-10 14-12z" fill="#110F30"/>
<path transform="translate(544,46)" d="m0 0h6l2 4-6 23-1 2-7-1-1-2z" fill="#1013B7"/>
<path transform="translate(743,306)" d="m0 0 5 4 7 14 4 14v11l-4 14-5 10h-3l8-17 2-9-1-11-5-13-5-12h-3l-3 12-2 25-2 1v-21l2-11 4-9z" fill="#0D0B22"/>
<path transform="translate(278,678)" d="m0 0h2v2h3l1 3 4-2 2 1v2l6 1v1h-10v2l-5 4-4 8h-2l-1 3-1-4 4-8h-2l-7 2 1-4 7-10z" fill="#FEDE46"/>
<path transform="translate(303,398)" d="m0 0h24l6 2h20v2l5-4h7l-3 1v4h-40l-7-1-8 1-2 1-2-1z" fill="#FDFEE7"/>
<path transform="translate(449,336)" d="m0 0h1l1 45 1 9 1 5 2 6v9l-2 8-2 1-2 3z" fill="#FFE047"/>
<path transform="translate(536,519)" d="m0 0 10 1 12 5v3l-3 2-7-1-13-2v-7z" fill="#FDFEE9"/>
<path transform="translate(242,188)" d="m0 0h4l-3 12-7 13h-3l5-10 5-12-7 3-6 4-7 6-6 10-2 6h-2l1-6 5-10 5-6 13-8z" fill="#0B091D"/>
<path transform="translate(511,339)" d="m0 0h2l-2 5-8 10-3 1-7-9 1-4z" fill="#FBD341"/>
<path transform="translate(553,362)" d="m0 0 4 1 6 8v2l-4 2-16 1 3-6h2l2-4z" fill="#FBD241"/>
<path transform="translate(542,340)" d="m0 0h9l11 2-1 5-6 8-12-12z" fill="#FBD241"/>
<path transform="translate(311,678)" d="m0 0 6 2 14 7 21 8 10 3-4 1h-9l-20-8-12-8-4-2z" fill="#121136"/>
<path transform="translate(173,392)" d="m0 0h3l-1 4-6 4-9 10-11 21-3 9-1 13-2-1-1-24 2 4v4h2l1-6 6-14 10-14z" fill="#0C0A1F"/>
<path transform="translate(499,363)" d="m0 0h4l7 8 2 2v3l-16-1-3-2 1-4z" fill="#FDD241"/>
<path transform="translate(251,656)" d="m0 0 9 1 3 5v2l-6 1-8 11-2 3h-2l-1-3 3-5v-2h2z" fill="#FDDD45"/>
<path transform="translate(220,262)" d="m0 0h5l-2 7-10 15-9 10-9 7-10 5-5 1v-2l10-4 10-7 7-7 11-15 4-7-10 1v-2z" fill="#0F0E20"/>
<path transform="translate(760,391)" d="m0 0 4 1 5 12 2 11h-2l-5-17-1-2h-3l-8 18-4 12-3 14-1-4 4-19 6-16z" fill="#100F2F"/>
<path transform="translate(191,240)" d="m0 0h3l-1 3-4 2-8 7-8 9-4 8-2 8-1 20-2-4v-15l4-13 6-10 12-12z" fill="#0E0D28"/>
<path transform="translate(125,390)" d="m0 0 3 1 7 11 5 14-2 1-7-17-4-5-2-1-3 10-3 14v17l-2-3-1-11 4-20z" fill="#12112E"/>
<path transform="translate(642,187)" d="m0 0 9 3 8 6 5 5 6 8 5 14v12l-2-3v-6l-3-8-3-9-11-12-7-5-6-1-2 1z" fill="#100F2F"/>
<path transform="translate(141,192)" d="m0 0 3 1-1 5-5 6-7 3-7-1 2-1v-2l6-4z" fill="#FDFEE9"/>
<path transform="translate(501,575)" d="m0 0 5 4 5-1 6 2 8 4v4h-7l-14-7-4-5z" fill="#FDFEEA"/>
<path transform="translate(716,637)" d="m0 0 1 3-11 12-7 8-11 11-6 3 2-4h2l2-4 24-24z" fill="#FEDB44"/>
<path transform="translate(527,591)" d="m0 0 5 3 1 2v20l-4 1-2-11z" fill="#FDFEEA"/>
<path transform="translate(85,272)" d="m0 0 2 2 1 2 3-3-1 6-6 12h-4l-2-5z" fill="#FDFEEB"/>
<path transform="translate(449,37)" d="m0 0 9 2 5 3 4 3-3 2-8-1-9-2-2-3z" fill="#FDFEE9"/>
<path transform="translate(296,168)" d="m0 0 2 1-3 6-8 10-12 9-12 5-6 1-1-3 1-3h2l1 3 9-3 8-5 10-9 6-6 1-5z" fill="#0E0C1C"/>
<path transform="translate(197,759)" d="m0 0 8 1 7 6-2 4-5 1-7-5-2-3z" fill="#FDFDF5"/>
<path transform="translate(99,227)" d="m0 0 5 1-1 6-3 5-1 2-4 1-4-4 6-9z" fill="#FDFEE9"/>
<path transform="translate(138,182)" d="m0 0 2 2-3 2-3 5-7 6-5 1-1-4 5-6z" fill="#FDFEE9"/>
<path transform="translate(117,691)" d="m0 0 4 1 5 6v2h2v4l-5 2-5-5-3-7z" fill="#FDFDF8"/>
<path transform="translate(76,267)" d="m0 0 6 1-2 1-1 4-6 12-4 1-1-4 6-13h2z" fill="#FDFEE9"/>
<path transform="translate(63,599)" d="m0 0h5l4 8 1 5-2 2h-5l-3-8z" fill="#FDFDF8"/>
<path transform="translate(185,332)" d="m0 0 1 4-6 16-7 11-9 10-12 9v-3l9-7 6-5 10-14 6-16z" fill="#100E2D"/>
<path transform="translate(703,337)" d="m0 0 2 1 8 16 7 10 8 8 6 5-1 2-13-11-8-10-6-10-3-8z" fill="#131230"/>
<path transform="translate(341,698)" d="m0 0h8l3 1v2h-2l1 3h-3v2l-7 1-4-3 1-5z" fill="#FEDE46"/>
<path transform="translate(577,62)" d="m0 0h2l1 5 16 6-1 4-8-1-8-4-2-6z" fill="#1317B2"/>
<path transform="translate(580,61)" d="m0 0 12 4 4 2-1 4h-7l-9-4v-5z" fill="#FDFEEA"/>
<path transform="translate(366,559)" d="m0 0 4 1 1 4 6-1 3-1-1 3-12 5h-4v-8l3-1z" fill="#FEDC45"/>
<path transform="translate(402,734)" d="m0 0 3 4-1 3-2 2-2 4v-3l-6 1h-6l-2-1v3h-2v-6l1-1 14 1 1-4h2z" fill="#FDD643"/>
<path transform="translate(549,489)" d="m0 0 6 1 9 7-1 4-14-1 4-1-1-9z" fill="#F7F8DD"/>
<path transform="translate(189,768)" d="m0 0h5l9 7 1 5-7-1-7-7z" fill="#FDFDF9"/>
<path transform="translate(843,448)" d="m0 0h10l-1 2-1 18-5-1v-17z" fill="#292E8F"/>
<path transform="translate(174,421)" d="m0 0 2 3-4 14-7 14-8 10-3 2 2-4 4-6 8-14 5-14z" fill="#0C0A21"/>
<path transform="translate(263,216)" d="m0 0v3l-10 9-9 6-10 5-8 1v-2l10-3 9-5 10-7 4-4z" fill="#100E2D"/>
<path transform="translate(769,415)" d="m0 0h2v19l-4 12-6 11h-3l8-16 2-6z" fill="#0C0A1F"/>
<path transform="translate(663,262)" d="m0 0 9 1 12 4 10 6 6 4-4 1-10-7-14-5-6-1 1 4h-2z" fill="#0F0D28"/>
<path transform="translate(713,143)" d="m0 0 4 5 8 7 2 4-5 2-8-7-1-5v-2z" fill="#0F13B8"/>
<path transform="translate(245,782)" d="m0 0 4 2-1 5-5 5h-2l-2 4-3-1 2-5 6-9z" fill="#FDFEEB"/>
<path transform="translate(254,679)" d="m0 0 2 1-1 7h5v4l-2 2-6-1-3-4 2-5z" fill="#FDD341"/>
<path transform="translate(186,318)" d="m0 0 2 4-8 2-9 8-8 7-7 11-1-2 6-10 3-4h2v-2l14-11z" fill="#0B081B"/>
<path transform="translate(694,240)" d="m0 0 5 2 9 7 7 8 7 14v2h-2l-7-14-9-10-6-5-4-2z" fill="#0F0D29"/>
<path transform="translate(759,495)" d="m0 0 2 2-2 3-2 4-7 7h-6l6-7z" fill="#242879"/>
<path transform="translate(143,308)" d="m0 0 3 1 2 6-3-1v-3h-3l-2 4-6 15-4 13h-1l1-10 5-14 7-10z" fill="#0D0B24"/>
<path transform="translate(258,790)" d="m0 0h2v10l-5 8h-2l1-10 2-7z" fill="#FDFEEF"/>
<path transform="translate(305,537)" d="m0 0h8l-2 1 1 4h2l1 8h-4l-6-11z" fill="#FFE047"/>
<path transform="translate(423,740)" d="m0 0h3l1 8-2 6-5-1 1-11h2z" fill="#FEDD46"/>
<path transform="translate(186,572)" d="m0 0h2l-1 3-23 12-5 3-3-1 8-5h2v-2l17-8z" fill="#FEDB44"/>
<path transform="translate(324,541)" d="m0 0 5 2 3 5 2 5-6 1-4-6z" fill="#FEDE46"/>
<path transform="translate(209,285)" d="m0 0h2l-2 4-8 8-13 8-8 2v-2l10-4 10-7z" fill="#111031"/>
<path transform="translate(599,167)" d="m0 0 6 1 12 7 5 4 6 7-1 2-11-10-17-10z" fill="#0D0B22"/>
<path transform="translate(672,279)" d="m0 0 5 4v2l3 1 5 6 10 8 8 4-1 2-8-4-9-7-5-4-8-10z" fill="#0F0D2A"/>
<path transform="translate(606,659)" d="m0 0h2l-4 8-10 6-1-2-3-1 15-10z" fill="#1A1B53"/>
<path transform="translate(56,550)" d="m0 0h4v8l-3 1-8-1-1-3z" fill="#FDFDF7"/>
<path transform="translate(596,177)" d="m0 0 4 2 5 5 10 6 11 6-2 1-10-4-9-6-8-7z" fill="#15143F"/>
<path transform="translate(196,763)" d="m0 0 7 6 5 2-1 2h-2v7l-2-4-9-7z" fill="#272C92"/>
<path transform="translate(95,646)" d="m0 0 4 1 2 5v3l-8 1-2-1 1-4z" fill="#FDFDFC"/>
<path transform="translate(62,545)" d="m0 0h1l1 12-4 1v-8l-8 3-4 2 1-4 10-4z" fill="#2F3492"/>
<path transform="translate(679,777)" d="m0 0h8l3 2v2l-8 2h-6l-1-4z" fill="#FDFEED"/>
<path transform="translate(736,582)" d="m0 0h1v6l-3 4-7-3-3-3v-1l7 1v-2z" fill="#FBDB45"/>
<path transform="translate(809,264)" d="m0 0h2v3h2v3l2 1-8 5-3 1 1-6z" fill="#FDFEEC"/>
<path transform="translate(158,730)" d="m0 0 5 1 3 3-1 3-5 2h-4l1-7z" fill="#FDFDF4"/>
<path transform="translate(124,687)" d="m0 0 4 5 2 5-1 7-1-4h-2l-6-9z" fill="#282D90"/>
<path transform="translate(720,273)" d="m0 0h2l1 2 1 17-1 7h-2z" fill="#0C091D"/>
<path transform="translate(781,218)" d="m0 0h2l-2 6-4 4-1-3-3-1 1-5z" fill="#FDFEEE"/>
<path transform="translate(254,793)" d="m0 0h1l-1 10-1 5 2 1-5 1-2-3 1-13h2l1 6z" fill="#2A2F8E"/>
<path transform="translate(758,338)" d="m0 0h1v11l-4 14-5 10h-3l8-17 2-9z" fill="#14133C"/>
<path transform="translate(372,723)" d="m0 0h2v6l-2 7-4 1v-8z" fill="#FFE047"/>
<path transform="translate(648,623)" d="m0 0 1 3-7 6-5 5-4 5-6 5-3-1 13-12z" fill="#2A2F8E"/>
<path transform="translate(713,392)" d="m0 0 8 6 11 13 2 4-3-1-7-9-5-6-5-2-1 2-1-6z" fill="#100F2F"/>
<path transform="translate(312,700)" d="m0 0 17 1v1h-9v2l-5 3h-2l-3-5z" fill="#FEDE46"/>
<path transform="translate(152,464)" d="m0 0h2l-2 4-6 5-4-1-6-5v-2l5 2h3l1 2 6-4z" fill="#0E0C27"/>
<path transform="translate(738,324)" d="m0 0h1v10l-1 14-2 1v-21z" fill="#131239"/>
<path transform="translate(440,744)" d="m0 0h1v6l1 4-4 3-4 2h-3v-2l5-4 2-5h2z" fill="#FEDC45"/>
<path transform="translate(364,478)" d="m0 0 8 5-2 3-7 2v-9z" fill="#FEDF46"/>
<path transform="translate(680,567)" d="m0 0 1 2 3-1v3l-10 7h-2l2-5 5-5z" fill="#F0D643"/>
<path transform="translate(628,221)" d="m0 0 4 2 13 9 8 4v2l-6-2-11-7-8-7z" fill="#131239"/>
<path transform="translate(623,638)" d="m0 0 5 3-1 3-6 1-2 4-1-4 2-5z" fill="#FDFEE6"/>
<path transform="translate(74,596)" d="m0 0h1l2 13-2 1v2h-2l-3-10h2z" fill="#2A2F8E"/>
<path transform="translate(171,362)" d="m0 0 2 1-9 10-12 9v-3l9-7 6-5z" fill="#151538"/>
<path transform="translate(326,693)" d="m0 0h3l6 1 1 4-5 1-5-1-2-4z" fill="#FEDF46"/>
<path transform="translate(716,437)" d="m0 0h2l5 10 8 11 1 4-5-5-6-9-5-10z" fill="#131237"/>
<path transform="translate(668,210)" d="m0 0 3 1 4 12v12l-2-3v-6l-3-8z" fill="#161746"/>
<path transform="translate(239,622)" d="m0 0 7 6 13 13 2 1-1 2-8-6-2-2-6-7-5-5z" fill="#2A2F8E"/>
<path transform="translate(346,488)" d="m0 0h5l-4 2h-3v2l-12 6h-3v-2l12-6z" fill="#FEDC45"/>
<path transform="translate(583,65)" d="m0 0 6 1 3-1 4 2-1 4h-7l-5-5z" fill="#FDFEEF"/>
<path transform="translate(293,675)" d="m0 0h4v3l4 3v2l-6 1-2-2z" fill="#FFE047"/>
<path transform="translate(655,639)" d="m0 0h2v2l-16 14-2-1 7-8 7-6z" fill="#FED944"/>
<path transform="translate(524,823)" d="m0 0 3 2 1 7h-4v-2h-2l-1-6z" fill="#FEDF46"/>
<path transform="translate(386,741)" d="m0 0 15 2-1 4v-3l-6 1h-6l-2-1-1 3v-5z" fill="#FFE047"/>
<path transform="translate(856,410)" d="m0 0 1 3 4-3v10h-5z" fill="#2A2F8E"/>
<path transform="translate(717,362)" d="m0 0 7 6 10 9-1 2-13-11-3-4z" fill="#0D0B23"/>
<path transform="translate(349,712)" d="m0 0h3l-2 6-1 2h-2v2h-2l-1-5 3-4z" fill="#FEDD45"/>
<path transform="translate(351,321)" d="m0 0 2 1 4 21-3-3-3-13z" fill="#1C1E50"/>
<path transform="translate(377,734)" d="m0 0 2 2-2 10-3-1v-9z" fill="#FFE047"/>
<path transform="translate(627,210)" d="m0 0 11 1 10 3 1 2-7-1-15-4z" fill="#171932"/>
<path transform="translate(163,727)" d="m0 0 4 2 4 4h-4v4l-2-1v-4l-7-2 1-2z" fill="#2A2F8E"/>
<path transform="translate(379,726)" d="m0 0h2l-1 11-1 7h-1v-9l-1-1 1-7z" fill="#FDD843"/>
<path transform="translate(225,676)" d="m0 0h9l1 4-6 1-3-1z" fill="#FEDD45"/>
<path transform="translate(100,643)" d="m0 0 3 3 2 6 2 1-7-1-2-7h2z" fill="#2A2F8E"/>
<path transform="translate(696,256)" d="m0 0 2 3 5 17-2 1-6-18z" fill="#0C0A1F"/>
<path transform="translate(725,624)" d="m0 0h2l-1 4-5 7-3 1 2-6z" fill="#FEDC45"/>
<path transform="translate(681,764)" d="m0 0h2v5l-4 4h-3l1-5z" fill="#FDFEE8"/>
<path transform="translate(624,717)" d="m0 0h2v2l-15 9-3-1z" fill="#FEDA44"/>
<path transform="translate(522,322)" d="m0 0h6l4 3-2 3-5-1-3-2z" fill="#FEDB45"/>
<path transform="translate(219,271)" d="m0 0 1 3-8 11-3-1 9-12z" fill="#0B091C"/>
<path transform="translate(107,235)" d="m0 0 4 1-3 1-2 9 2 1-5-1-1-3z" fill="#FDFEEC"/>
<path transform="translate(575,72)" d="m0 0h5l2 4-2 3-5-1z" fill="#FDFEEA"/>
<path transform="translate(272,192)" d="m0 0m-1 1 2 2-10 4-6 1-1-3 1-3h2l1 3 9-3z" fill="#100E2C"/>
<path transform="translate(268,666)" d="m0 0 3 1 2 5 2 1-6 2-1-3z" fill="#FFE047"/>
<path transform="translate(533,587)" d="m0 0 16 3v1h-16z" fill="#FDFDF1"/>
<path transform="translate(836,551)" d="m0 0h6v1h-5l-1 12-2-1-1-7z" fill="#2A2F8E"/>
<path transform="translate(449,260)" d="m0 0 5 2-1 7-3-1v5h-1z" fill="#FFE047"/>
<path transform="translate(764,396)" d="m0 0 3 3 4 13v3h-2l-5-17z" fill="#111032"/>
<path transform="translate(590,362)" d="m0 0 1 3v6l-3 5-3-1 2-4 1-7h2z" fill="#FEDB45"/>
<path transform="translate(351,704)" d="m0 0h8v4l-5 2-4-5z" fill="#FEDF46"/>
<path transform="translate(213,666)" d="m0 0 5 2 5 5-1 3-2-1v-2l-5-2-3-2z" fill="#FEDC45"/>
<path transform="translate(611,189)" d="m0 0 6 2 9 5-2 1-10-4-3-2z" fill="#0E0C27"/>
<path transform="translate(387,728)" d="m0 0h6v2h5v1h-9l-1 2 2 1h-4v-5z" fill="#FEDA44"/>
<path transform="translate(186,318)" d="m0 0 2 4-8 2-4 4-2-1 5-5z" fill="#111031"/>
<path transform="translate(645,201)" d="m0 0 3 3 7 11v2l-4-1-2-6-4-7z" fill="#19194E"/>
<path transform="translate(294,693)" d="m0 0 4 1 1 2v6l-4-2z" fill="#FEDB45"/>
<path transform="translate(311,678)" d="m0 0 6 2 10 5-4 2-6-4-4-2z" fill="#282D89"/>
<path transform="translate(527,591)" d="m0 0 5 3-1 5h-3v7h-1z" fill="#FDFDFD"/>
<path transform="translate(766,504)" d="m0 0h1l-1 9-3 7-1-4 3-11z" fill="#FEDA44"/>
<path transform="translate(247,212)" d="m0 0h16v1l-14 2h-5z" fill="#08040F"/>
<path transform="translate(321,711)" d="m0 0h2v2h-2l-2 6-2 5h-1v-8z" fill="#FEDE46"/>
<path transform="translate(229,92)" d="m0 0h3v23h-1l-1-21-2-1z" fill="#2A2F8E"/>
<path transform="translate(676,678)" d="m0 0h2l-2 4-8 7-2-1z" fill="#FED944"/>
<path transform="translate(131,682)" d="m0 0 2 1-5 7 1 2-4-2 1-4z" fill="#FDFEEE"/>
<path transform="translate(488,310)" d="m0 0h18v2l-2 1h-6v-2h-10z" fill="#FEDB44"/>
<path transform="translate(208,265)" d="m0 0h4v2l-11 5-2-1 4-4z" fill="#080510"/>
<path transform="translate(174,257)" d="m0 0v3l-7 12-1-2 6-12z" fill="#0D0B22"/>
<path transform="translate(715,141)" d="m0 0 5 2 1 2h-3l1 4-4-2-1-4z" fill="#FDFDE2"/>
<path transform="translate(656,695)" d="m0 0 3 1-12 9-2-1z" fill="#FED944"/>
<path transform="translate(250,644)" d="m0 0 3 1v2l4-1 1 4-5 1-3-5z" fill="#FEDF46"/>
<path transform="translate(760,391)" d="m0 0 4 1 1 4h-5l-1 2h-2l2-6z" fill="#0B081A"/>
<path transform="translate(148,317)" d="m0 0 2 4 1 11h-2l-1-4z" fill="#18184A"/>
<path transform="translate(741,311)" d="m0 0 1 3-2 9-3 2 1-8z" fill="#0B081A"/>
<path transform="translate(201,268)" d="m0 0m-2 1 2 1-4 4-6 4h-2l1-3z" fill="#0F0D28"/>
<path transform="translate(774,225)" d="m0 0h2l2 2 1 2-4 3-4-4z" fill="#282D8F"/>
<path transform="translate(239,203)" d="m0 0 1 3-5 8-2-2 5-8z" fill="#0C0A1F"/>
<path transform="translate(291,177)" d="m0 0v3l-6 7-4 2 2-4z" fill="#0F0D28"/>
<path transform="translate(359,398)" d="m0 0h6l-3 1v4h-7z" fill="#FEFFE5"/>
<path transform="translate(143,308)" d="m0 0 3 1 2 6-3-1v-3h-3l-2 4-2-1z" fill="#1B1D45"/>
<path transform="translate(743,306)" d="m0 0 5 4 3 6-3-1-2-4h-5z" fill="#131239"/>
<path transform="translate(663,262)" d="m0 0 9 1v2h-6l1 4h-2z" fill="#131327"/>
<path transform="translate(642,187)" d="m0 0 9 3v2l-8-1-2 1z" fill="#0C0A20"/>
<path transform="translate(248,795)" d="m0 0h2l-1 8-2 1v-4h-2l2-4z" fill="#FDFDF5"/>
<path transform="translate(327,710)" d="m0 0 4 1 2 4-1 4-5-7z" fill="#FADB45"/>
<path transform="translate(243,193)" d="m0 0h1l-1 7-3 4-1-2 3-8z" fill="#07030C"/>
<path transform="translate(713,143)" d="m0 0 4 5 3 4-4 1-3-2 1-3z" fill="#2A2F8E"/>
</svg>
